Coordinates
version=1
nRows=12
nColumns=24
inDegrees=yes

Units are S.I. units (second, meters, Newtons, ...)
Angles are in degrees.

endheader
time	pelvis_tilt	pelvis_list	pelvis_rotation	pelvis_tx	pelvis_ty	pelvis_tz	hip_flexion_r	hip_adduction_r	hip_rotation_r	knee_angle_r	ankle_angle_r	subtalar_angle_r	mtp_angle_r	hip_flexion_l	hip_adduction_l	hip_rotation_l	knee_angle_l	ankle_angle_l	subtalar_angle_l	mtp_angle_l	lumbar_extension	lumbar_bending	lumbar_rotation
      0.69600000	     -2.24067502	     -4.01124948	      2.88707551	     -0.42843798	      0.90480746	      0.33903529	     14.33289344	      9.84126371	     -2.25656821	    -24.59287692	     12.24719149	     -1.68096838	      2.65963472	     17.38630941	     -7.60090618	     -5.61668150	    -75.80110426	     -3.07989643	    -11.25709118	     -2.65529216	     -5.87928449	      5.21665912	      0.46167391
      0.70016667	     -2.33296566	     -3.82904486	      2.82092678	     -0.42316223	      0.90586702	      0.33900074	     13.79688922	      9.67017682	     -2.11048770	    -24.11481205	     12.29843570	     -1.58149247	      2.66104785	     18.19400360	     -7.30150751	     -5.66515310	    -75.75732917	     -2.79531162	    -11.33891880	     -2.65301577	     -5.78181094	      5.02683097	      0.58717282
      0.70433333	     -2.45489197	     -3.61768853	      2.71942602	     -0.41792855	      0.90685951	      0.33899812	     13.31718360	      9.46929513	     -1.93537058	    -23.68590649	     12.32414982	     -1.48341020	      2.66249054	     19.00645629	     -6.96703049	     -5.74446680	    -75.63099191	     -2.49069694	    -11.37997416	     -2.65048765	     -5.68396846	      4.80456167	      0.86373557
      0.70850000	     -2.52686786	     -3.42206101	      2.60961364	     -0.41262473	      0.90791384	      0.33902427	     12.75283375	      9.29124963	     -1.74934889	    -23.19903659	     12.39457360	     -1.38090569	      2.66541392	     19.73458477	     -6.66898960	     -5.84665031	    -75.41812549	     -2.23494442	    -11.37382906	     -2.64368520	     -5.61533108	      4.58843433	      1.13594147
      0.71266667	     -2.58963476	     -3.21893787	      2.49087820	     -0.40731479	      0.90897522	      0.33902877	     12.17536446	      9.10088100	     -1.56320061	    -22.70074457	     12.40140414	     -1.28434334	      2.66573573	     20.42473457	     -6.35626144	     -5.95321408	    -75.12097839	     -1.94825426	    -11.35562516	     -2.63272157	     -5.55638972	      4.38713406	      1.26502362
      0.71683333	     -2.63691398	     -3.01010465	      2.34995295	     -0.40200234	      0.91003278	      0.33907247	     11.58065912	      8.90798311	     -1.35497942	    -22.20104138	     12.41285842	     -1.19934868	      2.66592676	     21.06970829	     -6.04954732	     -6.08591897	    -74.74528213	     -1.65833819	    -11.28865899	     -2.61517923	     -5.52261846	      4.16481241	      1.46319909
      0.72100000	     -2.65931249	     -2.81729936	      2.19833773	     -0.39666757	      0.91109208	      0.33914069	     10.94621614	      8.73553576	     -1.13161024	    -21.67194168	     12.44221062	     -1.13373486	      2.66675306	     21.66598231	     -5.77514722	     -6.23400516	    -74.30343865	     -1.37427846	    -11.17669283	     -2.57887599	     -5.50939242	      3.96094726	      1.77671223
      0.72516667	     -2.69346723	     -2.60581637	      2.02916673	     -0.39135140	      0.91211521	      0.33920543	     10.33780431	      8.53518354	     -0.91589394	    -21.16323997	     12.40855478	     -1.04669157	      2.66567885	     22.24699896	     -5.47543124	     -6.39386626	    -73.77829583	     -1.08015966	    -11.09097818	     -2.55232226	     -5.48733065	      3.73923380	      1.92067827
      0.72933333	     -2.69432730	     -2.39869457	      1.84373341	     -0.38602645	      0.91315429	      0.33930638	      9.68518644	      8.34220497	     -0.68126100	    -20.63416146	     12.38657848	     -0.97104752	      2.66497096	     22.76518304	     -5.19755730	     -6.57684036	    -73.18212663	     -0.77933477	    -10.95807410	     -2.51832441	     -5.50197023	      3.51835425	      2.13256446
      0.73350000	     -2.68086102	     -2.19947608	      1.64867759	     -0.38070452	      0.91417224	      0.33942378	      9.01500443	      8.15594126	     -0.43972535	    -20.09450969	     12.35488693	     -0.90725219	      2.66384466	     23.24730648	     -4.93776348	     -6.77026739	    -72.52244521	     -0.47515196	    -10.81210142	     -2.47717506	     -5.53490647	      3.30595414	      2.37344780
      0.73766667	     -2.63599205	     -2.02946692	      1.45829347	     -0.37536697	      0.91518635	      0.33956761	      8.29302354	      8.00331668	     -0.18967267	    -19.51120280	     12.33956422	     -0.88643193	      2.66406737	     23.68063417	     -4.72450180	     -6.96220887	    -71.80976939	     -0.17313697	    -10.63820697	     -2.40797446	     -5.59408775	      3.12197155	      2.70135301
      0.74183333	     -2.60086146	     -1.84305924	      1.24619682	     -0.37006321	      0.91615052	      0.33971288	      7.59907653	      7.82481956	      0.06063157	    -18.95535992	     12.28071061	     -0.84234844	      2.66379786	     24.09862064	     -4.49407382	     -7.17232145	    -71.02389580	      0.13622156	    -10.47960432	     -2.33372464	     -5.65047794	      2.92184551	      2.94759374
